<?xml version="1.0" encoding="UTF-8"?>
<svg version="1.1" xmlns="http://www.w3.org/2000/svg" width="640" height="436">
<path d="M0 0 C6.08035089 2.55651117 6.08035089 2.55651117 8.22265625 4.71484375 C9.72287454 6.43558055 9.72287454 6.43558055 12.84375 7.01171875 C17.27379638 8.31894555 21.05564839 10.21882862 24.65625 13.13671875 C24.65625 13.79671875 24.65625 14.45671875 24.65625 15.13671875 C25.39875 15.07484375 26.14125 15.01296875 26.90625 14.94921875 C30.26321324 15.17810261 31.40137425 15.64024917 33.65625 18.13671875 C33.6871875 19.77640625 33.6871875 19.77640625 33.71875 21.44921875 C34.25206651 25.25495636 34.25206651 25.25495636 37.0859375 26.78515625 C39.06378998 27.79720025 41.06562143 28.76390504 43.08984375 29.6796875 C45.85507802 31.2495998 46.60440407 32.19532924 47.65625 35.13671875 C48.831875 34.64171875 50.0075 34.14671875 51.21875 33.63671875 C55.29547346 32.16795195 58.29684052 31.28040617 62.65625 32.13671875 C64.58984375 33.9296875 64.58984375 33.9296875 66.59375 36.13671875 C69.2679978 39.15148545 69.2679978 39.15148545 72.8359375 40.7734375 C75.24420021 40.90426926 75.24420021 40.90426926 78.65625 40.13671875 C79.37941406 39.38841797 79.37941406 39.38841797 80.1171875 38.625 C82.10363476 36.70409542 83.24703787 36.74953583 85.96875 36.63671875 C90.15365348 36.31793356 92.92287244 35.08825702 96.65625 33.13671875 C99.28125 32.57421875 99.28125 32.57421875 101.65625 33.13671875 C104.13141927 36.24836012 105.99258121 39.53210303 107.65625 43.13671875 C108.89375 43.05421875 110.13125 42.97171875 111.40625 42.88671875 C114.50777395 42.89218881 115.38429691 42.93826649 117.96875 44.82421875 C119.69420106 47.18872576 121.15944761 49.62209074 122.65625 52.13671875 C125.50915587 56.33216856 127.10775391 58.20548509 132.03125 59.51171875 C136.94694279 60.85826166 138.78087183 63.37521353 141.83984375 67.29296875 C143.93505095 69.41971671 145.354217 69.90982557 148.21875 70.63671875 C152.90008191 71.88294363 154.87123619 74.03606248 157.5078125 78.02734375 C160.76584957 84.01149347 161.2866083 90.70101833 161.84375 97.38671875 C162.61070742 99.4670905 162.61070742 99.4670905 165.46875 100.82421875 C168.89612209 103.3107436 169.17319468 104.03351985 170.46875 107.82421875 C171.29841502 110.21498149 171.29841502 110.21498149 172.65625 112.13671875 C175.02692186 112.96359502 176.93505962 113.07762751 179.4375 113.0390625 C181.97358233 113.15068584 183.47979283 113.87536289 185.65625 115.13671875 C185.65625 116.12671875 185.65625 117.11671875 185.65625 118.13671875 C186.275 118.19859375 186.89375 118.26046875 187.53125 118.32421875 C189.65625 119.13671875 189.65625 119.13671875 190.90625 121.26171875 C191.65625 124.13671875 191.65625 124.13671875 191.59375 127.69921875 C191.30556772 131.08940119 191.30556772 131.08940119 193.15625 133.01171875 C194.96107476 135.56855383 194.7264065 136.40375021 194.53125 139.44921875 C194.38464393 143.07332072 194.68229511 144.61734346 197.09375 147.32421875 C201.27193272 152.28138469 200.56199863 158.95897004 200.65625 165.13671875 C201.27242187 165.24757812 201.88859375 165.3584375 202.5234375 165.47265625 C206.01893231 166.56099712 206.92992108 169.0293267 208.65625 172.13671875 C210.01853955 176.08735843 210.65625 178.945307 210.65625 183.13671875 C211.23632812 183.15089844 211.81640625 183.16507813 212.4140625 183.1796875 C218.53409147 183.55335264 221.36609384 184.74192463 225.65625 189.13671875 C226.31625 190.12671875 226.97625 191.11671875 227.65625 192.13671875 C228.419375 192.56984375 229.1825 193.00296875 229.96875 193.44921875 C233.37899302 195.59053413 235.37978725 197.81958731 237.65625 201.13671875 C238.22894578 205.30921657 238.01711122 206.59542691 235.65625 210.13671875 C235.65625 211.10609375 235.65625 212.07546875 235.65625 213.07421875 C235.65625 216.22952822 235.53356018 217.63363851 233.65625 220.13671875 C231.9927021 220.81113006 230.32558058 221.47675085 228.65625 222.13671875 C226.36756679 224.19653364 224.3129275 226.27733694 222.44140625 228.7265625 C219.48390894 232.59115163 217.40680193 234.1120899 212.65625 235.13671875 C211.28173954 235.2669915 209.90670085 235.39178148 208.53125 235.51171875 C204.63889171 235.75155229 204.63889171 235.75155229 202.59375 238.19921875 C200.65625 240.13671875 200.65625 240.13671875 197.21875 240.19921875 C196.043125 240.17859375 194.8675 240.15796875 193.65625 240.13671875 C191.95905873 241.08398829 190.28689764 242.07900136 188.65625 243.13671875 C187.33625 243.13671875 186.01625 243.13671875 184.65625 243.13671875 C184.65625 244.12671875 184.65625 245.11671875 184.65625 246.13671875 C180.15577404 248.38695673 174.14851182 248.83505386 169.328125 247.484375 C164.95386992 245.40576906 162.03348117 242.60054559 158.65625 239.13671875 C156.45164696 237.26908872 154.44504082 235.94671842 151.65625 235.13671875 C149.12397984 235.35748076 146.82519041 235.90791895 144.3671875 236.55078125 C139.82490468 237.53254267 135.27934743 237.29492361 130.65625 237.13671875 C130.65625 237.79671875 130.65625 238.45671875 130.65625 239.13671875 C126.75965209 242.38830159 122.81242866 244.82840444 117.90625 246.13671875 C114.39698766 246.89275328 114.39698766 246.89275328 112.15625 250.13671875 C109.78215323 252.98563487 108.46934707 254.19828502 104.84765625 254.94921875 C95.44534471 255.7536946 87.36354542 253.69439142 78.65234375 250.29296875 C77.16927734 249.720625 77.16927734 249.720625 75.65625 249.13671875 C74.69912109 248.75580078 74.69912109 248.75580078 73.72265625 248.3671875 C70.38342511 247.99475907 67.34387001 249.05615827 64.15625 249.94921875 C57.36384314 251.75531463 50.61163845 253.10059156 43.65625 254.13671875 C42.12871094 254.44029297 42.12871094 254.44029297 40.5703125 254.75 C36.29855274 255.31689573 33.32246474 254.34679578 29.65625 252.13671875 C28.09375 250.375 28.09375 250.375 26.65625 248.44921875 C24.34886555 245.54657821 24.02747833 245.20300952 20.15625 244.51171875 C16.41024991 244.83807482 12.81164254 245.78102459 9.15625 246.63671875 C-0.7746396 248.89810285 -10.65743007 248.7146951 -20.734375 247.4453125 C-24.64214429 246.98316613 -28.54733444 246.58896281 -32.46875 246.26171875 C-33.23364746 246.17607666 -33.99854492 246.09043457 -34.78662109 246.00219727 C-39.16264549 245.67160015 -41.60252847 245.95019408 -45.1640625 248.62890625 C-45.69016113 249.09409668 -46.21625977 249.55928711 -46.75830078 250.03857422 C-48.34375 251.13671875 -48.34375 251.13671875 -52.09375 251.13671875 C-55.34375 250.13671875 -55.34375 250.13671875 -56.60546875 248.61328125 C-59.30981225 246.31610857 -61.92918902 246.6483561 -65.40625 246.51171875 C-72.18103814 246.21807468 -72.18103814 246.21807468 -74.34375 245.13671875 C-76.7371653 245.01227273 -79.13463078 244.96104806 -81.53125 244.94921875 C-82.82417969 244.93503906 -84.11710938 244.92085937 -85.44921875 244.90625 C-89.27326667 244.96957053 -89.27326667 244.96957053 -92.48046875 246.1484375 C-98.2926182 247.63526643 -103.99950866 247.26426664 -109.96875 247.13671875 C-112.37742168 247.08557922 -114.78630837 247.04355581 -117.1953125 247.01171875 C-118.25572754 246.98851562 -119.31614258 246.9653125 -120.40869141 246.94140625 C-123.46957596 247.1450918 -125.56333393 247.89195246 -128.34375 249.13671875 C-135.81328349 250.34297882 -142.38811936 248.81664574 -149.40625 246.38671875 C-150.14456055 246.13470703 -150.88287109 245.88269531 -151.64355469 245.62304688 C-155.80134081 244.07999067 -157.81008295 242.68693307 -160.34375 239.13671875 C-162.48588905 238.764762 -162.48588905 238.764762 -164.84375 239.07421875 C-169.88840255 239.29579939 -173.99464783 238.36015176 -178.80078125 236.890625 C-181.33854896 236.13826069 -183.71199905 235.44556886 -186.34375 235.13671875 C-187.33375 235.79671875 -188.32375 236.45671875 -189.34375 237.13671875 C-196.3712654 237.59010684 -196.3712654 237.59010684 -199.65625 236.05859375 C-203.25632626 234.82368387 -205.75192336 235.4422798 -209.46875 236.13671875 C-216.01647727 237.35490057 -216.01647727 237.35490057 -219.34375 235.13671875 C-221.3499689 235.43031176 -223.34886766 235.77401287 -225.34375 236.13671875 C-231.49064287 236.51202409 -236.42435945 235.92370458 -242.34375 234.13671875 C-243.49875 234.15734375 -244.65375 234.17796875 -245.84375 234.19921875 C-249.98534391 234.12526172 -252.61132599 232.86469283 -256.34375 231.13671875 C-259.65984863 230.14188916 -261.37554747 230.14239687 -264.84375 230.76171875 C-269.07827528 231.21541789 -270.05857153 230.76486153 -273.34375 228.13671875 C-277.35666366 224.8725458 -280.05864215 222.66593361 -281.03125 217.44921875 C-280.22457946 213.56253343 -279.25406335 212.72366395 -276.34375 210.13671875 C-273.72041762 206.34339841 -272.04688559 202.7071001 -271.34375 198.13671875 C-269.98381279 192.15299501 -266.50232143 187.55029692 -262.34375 183.13671875 C-261.68375 183.13671875 -261.02375 183.13671875 -260.34375 183.13671875 C-260.59125 181.80640625 -260.59125 181.80640625 -260.84375 180.44921875 C-260.34375 177.13671875 -260.34375 177.13671875 -258.80859375 175.765625 C-256.69539645 174.45861858 -254.54707109 173.284765 -252.34375 172.13671875 C-251.11273752 171.41067261 -249.88342187 170.68173764 -248.65625 169.94921875 C-245.91226902 168.44779519 -243.25638501 167.25037331 -240.34375 166.13671875 C-238.66702584 164.45999459 -238.97868159 162.31195352 -238.78125 160.01171875 C-238.69101563 159.01011719 -238.60078125 158.00851563 -238.5078125 156.9765625 C-238.26794535 154.01396386 -238.26794535 154.01396386 -238.65625 150.57421875 C-238.172961 145.25803972 -235.23348026 141.5153405 -232.34375 137.13671875 C-231.07822644 135.00568115 -231.07822644 135.00568115 -231.46875 131.76171875 C-231.34375 128.13671875 -231.34375 128.13671875 -229.84375 126.19921875 C-227.92439475 124.05001287 -227.92439475 124.05001287 -228.78125 120.38671875 C-228.8828125 118.296875 -228.8828125 118.296875 -228.34375 116.13671875 C-224.67189507 112.19052983 -220.30300716 109.25346706 -215.63671875 106.59375 C-213.08772137 105.19117553 -213.08772137 105.19117553 -211.34375 102.13671875 C-210.395 102.19859375 -209.44625 102.26046875 -208.46875 102.32421875 C-206.921875 102.23140625 -206.921875 102.23140625 -205.34375 102.13671875 C-203.17692376 99.42919983 -203.17692376 99.42919983 -201.34375 96.13671875 C-196.77470768 90.93308721 -191.28210982 86.25106871 -184.21875 85.38671875 C-182.94 85.30421875 -181.66125 85.22171875 -180.34375 85.13671875 C-179.374375 84.95109375 -178.405 84.76546875 -177.40625 84.57421875 C-173.3713379 83.99780274 -169.41186315 84.05535649 -165.34375 84.13671875 C-164.81587891 83.05003906 -164.81587891 83.05003906 -164.27734375 81.94140625 C-159.75811445 73.09174052 -159.75811445 73.09174052 -155.78125 70.44921875 C-151.49718058 67.18472043 -150.69782902 62.60724049 -149.32128906 57.65893555 C-145.82292448 45.35168894 -139.83465504 34.69775852 -131.34375 25.13671875 C-130.76109375 24.42386719 -130.1784375 23.71101563 -129.578125 22.9765625 C-128.21983822 21.31826577 -126.78909337 19.71971387 -125.34375 18.13671875 C-124.68375 18.13671875 -124.02375 18.13671875 -123.34375 18.13671875 C-123.34375 17.47671875 -123.34375 16.81671875 -123.34375 16.13671875 C-117.14218434 10.37364763 -110.52036405 9.00873992 -102.34375 8.13671875 C-100.92628576 7.93388296 -99.50943067 7.72665003 -98.09375 7.51171875 C-97.18625 7.38796875 -96.27875 7.26421875 -95.34375 7.13671875 C-95.01375 6.14671875 -94.68375 5.15671875 -94.34375 4.13671875 C-89.38972898 1.65970824 -84.33670499 3.66338777 -79.34375 5.13671875 C-77.67917255 5.42010962 -76.01221281 5.68968009 -74.34375 5.94921875 C-68.31006572 6.9963871 -62.63745807 8.89796338 -56.875 10.91015625 C-54.00295182 11.90774821 -51.1270166 12.81704455 -48.21875 13.69921875 C-44.65136709 14.87261124 -42.11083877 16.54815183 -39.34375 19.13671875 C-35.58853313 16.52709191 -35.58853313 16.52709191 -33.40625 12.63671875 C-31.90267094 9.09888567 -29.62010676 8.00892261 -26.34375 6.13671875 C-22.87049819 4.97896815 -19.98307552 5.06805223 -16.34375 5.13671875 C-16.116875 4.53859375 -15.89 3.94046875 -15.65625 3.32421875 C-11.81322288 -3.08082645 -6.33528125 -2.33349526 0 0 Z " fill="#B3BBC9" transform="translate(341.34375,81.86328125)"/>
<path d="M0 0 C0.99 0.61875 0.99 0.61875 2 1.25 C3.65740715 1.62668344 5.32345271 1.97057545 7 2.25 C7 2.58 7 2.91 7 3.25 C3.37 3.25 -0.26 3.25 -4 3.25 C-4 3.91 -4 4.57 -4 5.25 C-7.89659791 8.50158284 -11.84382134 10.94168569 -16.75 12.25 C-20.25926234 13.00603453 -20.25926234 13.00603453 -22.5 16.25 C-24.87409677 19.09891612 -26.18690293 20.31156627 -29.80859375 21.0625 C-39.21090529 21.86697585 -47.29270458 19.80767267 -56.00390625 16.40625 C-56.99261719 16.0246875 -57.98132813 15.643125 -59 15.25 C-59.63808594 14.99605469 -60.27617187 14.74210937 -60.93359375 14.48046875 C-64.27282489 14.10804032 -67.31237999 15.16943952 -70.5 16.0625 C-77.29240686 17.86859588 -84.04461155 19.21387281 -91 20.25 C-92.01835937 20.45238281 -93.03671875 20.65476562 -94.0859375 20.86328125 C-98.35769726 21.43017698 -101.33378526 20.46007703 -105 18.25 C-106.5625 16.48828125 -106.5625 16.48828125 -108 14.5625 C-110.30738445 11.65985946 -110.62877167 11.31629077 -114.5 10.625 C-118.24600009 10.95135607 -121.84460746 11.89430584 -125.5 12.75 C-133.40925415 14.57719212 -140.94369816 14.5324937 -149 14.25 C-149.33 12.93 -149.66 11.61 -150 10.25 C-147 10.25 -147 10.25 -144 11.25 C-141.65377147 10.63024152 -139.32108669 9.95812814 -137 9.25 C-135.88625 9.085 -134.7725 8.92 -133.625 8.75 C-132.75875 8.585 -131.8925 8.42 -131 8.25 C-130.67 7.59 -130.34 6.93 -130 6.25 C-129.21625 6.435625 -128.4325 6.62125 -127.625 6.8125 C-125.02910225 7.50962266 -125.02910225 7.50962266 -123 6.25 C-122.01 6.58 -121.02 6.91 -120 7.25 C-118.00038436 7.28920815 -115.99950636 7.29443347 -114 7.25 C-113.67 6.59 -113.34 5.93 -113 5.25 C-112.01 5.25 -111.02 5.25 -110 5.25 C-109.401875 5.04375 -108.80375 4.8375 -108.1875 4.625 C-105.08410831 4.09299 -102.88825819 5.13408206 -100 6.25 C-100 6.91 -100 7.57 -100 8.25 C-96.50220284 9.90173755 -94.68101617 10.47700539 -91 9.25 C-90.01 9.25 -89.02 9.25 -88 9.25 C-87.505 10.24 -87.505 10.24 -87 11.25 C-83.535 10.755 -83.535 10.755 -80 10.25 C-80 10.91 -80 11.57 -80 12.25 C-78.58297487 12.10769192 -77.1663904 11.96099254 -75.75 11.8125 C-74.96109375 11.73128906 -74.1721875 11.65007812 -73.359375 11.56640625 C-71.17635361 11.27365007 -69.1226818 10.82935581 -67 10.25 C-67 9.59 -67 8.93 -67 8.25 C-62.5048914 5.92994395 -57.96364462 5.6179254 -53 6.25 C-52.01 6.91 -51.02 7.57 -50 8.25 C-49.67 7.92 -49.34 7.59 -49 7.25 C-42.60465116 7.94767442 -42.60465116 7.94767442 -40 9.25 C-38.62657169 9.3189472 -37.24997898 9.33467708 -35.875 9.3125 C-33.956875 9.2815625 -33.956875 9.2815625 -32 9.25 C-31.01 11.23 -31.01 11.23 -30 13.25 C-26.53058454 12.79177532 -23.32604951 12.35868317 -20 11.25 C-19.67 10.59 -19.34 9.93 -19 9.25 C-18.67 9.58 -18.34 9.91 -18 10.25 C-17.4225 9.569375 -16.845 8.88875 -16.25 8.1875 C-15.5075 7.548125 -14.765 6.90875 -14 6.25 C-11.75 6.5 -11.75 6.5 -10 7.25 C-10 6.59 -10 5.93 -10 5.25 C-9.34 5.25 -8.68 5.25 -8 5.25 C-7.67 4.26 -7.34 3.27 -7 2.25 C-2.79300292 -1.04737609 -2.79300292 -1.04737609 0 0 Z M-91 11.25 C-91.33 11.91 -91.66 12.57 -92 13.25 C-91.34 13.25 -90.68 13.25 -90 13.25 C-90.33 12.59 -90.66 11.93 -91 11.25 Z " fill="#545C6E" transform="translate(476,315.75)"/>
<path d="M0 0 C-3.96 3.465 -3.96 3.465 -8 7 C-8.495 6.01 -8.495 6.01 -9 5 C-10.68998716 5.70979461 -12.37858308 6.42315443 -14.05859375 7.15625 C-15.75947933 7.89546788 -17.47261352 8.60637027 -19.1875 9.3125 C-22.60216196 11.36129718 -23.92968435 13.64466084 -26 17 C-29 19 -29 19 -32 19 C-32.268125 19.928125 -32.53625 20.85625 -32.8125 21.8125 C-33.94940437 24.86419067 -34.74759307 25.8499752 -37 28 C-37 28.99 -37 29.98 -37 31 C-37.85087725 36.87777046 -39.20756717 41.37797249 -43 46 C-43.66 46 -44.32 46 -45 46 C-45.09796875 46.54527344 -45.1959375 47.09054688 -45.296875 47.65234375 C-47.63334242 59.43539064 -47.63334242 59.43539064 -51 64 C-53.32156597 64.40729228 -55.6568787 64.74438677 -58 65 C-59.5940064 67.26839373 -60.16877022 69.31072717 -61 72 C-61.66 72 -62.32 72 -63 72 C-63 73.32 -63 74.64 -63 76 C-68.1468192 79.16727335 -72.158256 79.35050464 -78 79 C-78 78.01 -78 77.02 -78 76 C-75.03 76 -72.06 76 -69 76 C-68.64808594 75.27554688 -68.29617187 74.55109375 -67.93359375 73.8046875 C-63.41436445 64.95502177 -63.41436445 64.95502177 -59.4375 62.3125 C-55.15343058 59.04800168 -54.35407902 54.47052174 -52.97753906 49.5222168 C-49.47917448 37.21497019 -43.49090504 26.56103977 -35 17 C-34.12601563 15.93072266 -34.12601563 15.93072266 -33.234375 14.83984375 C-31.87608822 13.18154702 -30.44534337 11.58299512 -29 10 C-28.34 10 -27.68 10 -27 10 C-27 9.34 -27 8.68 -27 8 C-21.50555111 2.8940475 -15.81864481 1.19301911 -8.50390625 0.32421875 C-2.04727646 -0.51181912 -2.04727646 -0.51181912 0 0 Z " fill="#E4E8FB" transform="translate(245,90)"/>
<path d="M0 0 C0 0.66 0 1.32 0 2 C3.49779716 3.65173755 5.31898383 4.22700539 9 3 C9.99 3 10.98 3 12 3 C12.495 3.99 12.495 3.99 13 5 C13.99 5.33 14.98 5.66 16 6 C15.67 6.66 15.34 7.32 15 8 C11.9375 8.625 11.9375 8.625 9 9 C9 9.66 9 10.32 9 11 C11.43800966 10.69112547 13.87535367 10.37805338 16.3125 10.0625 C17.00279297 9.97548828 17.69308594 9.88847656 18.40429688 9.79882812 C21.40142288 9.40789865 24.12450119 8.9584996 27 8 C29.1875 8.9375 29.1875 8.9375 31 10 C29.09927734 10.29003906 29.09927734 10.29003906 27.16015625 10.5859375 C25.46091358 10.84880377 23.76169617 11.11183336 22.0625 11.375 C20.81629883 11.56449219 20.81629883 11.56449219 19.54492188 11.7578125 C14.6317769 12.52250432 9.83645754 13.45372804 5.02392578 14.71118164 C1.24790317 15.25002781 -1.86363442 14.05970277 -5 12 C-6.55078125 10.234375 -6.55078125 10.234375 -8 8.3125 C-10.30738445 5.40985946 -10.62877167 5.06629077 -14.5 4.375 C-18.24600009 4.70135607 -21.84460746 5.64430584 -25.5 6.5 C-33.40925415 8.32719212 -40.94369816 8.2824937 -49 8 C-49.33 6.68 -49.66 5.36 -50 4 C-47 4 -47 4 -44 5 C-41.65377147 4.38024152 -39.32108669 3.70812814 -37 3 C-35.88625 2.835 -34.7725 2.67 -33.625 2.5 C-32.75875 2.335 -31.8925 2.17 -31 2 C-30.67 1.34 -30.34 0.68 -30 0 C-29.21625 0.185625 -28.4325 0.37125 -27.625 0.5625 C-25.02910225 1.25962266 -25.02910225 1.25962266 -23 0 C-22.01 0.33 -21.02 0.66 -20 1 C-18.00038436 1.03920815 -15.99950636 1.04443347 -14 1 C-13.67 0.34 -13.34 -0.32 -13 -1 C-12.01 -1 -11.02 -1 -10 -1 C-6.06329512 -2.31223496 -3.87511856 -1.24296256 0 0 Z M9 5 C8.67 5.66 8.34 6.32 8 7 C8.66 7 9.32 7 10 7 C9.67 6.34 9.34 5.68 9 5 Z " fill="#798A95" transform="translate(376,322)"/>
<path d="M0 0 C5.80766887 -0.5279699 10.21483002 0.90838246 15.66796875 2.86328125 C19.20327647 4.06934754 22.75943911 5.00211202 26.375 5.9375 C31.77101885 7.4357309 35.16114623 8.9353313 39 13 C39.99 12.34 40.98 11.68 42 11 C41.6875 12.875 41.6875 12.875 41 15 C40.01 15.66 39.02 16.32 38 17 C37.26656572 20.06556598 37.26656572 20.06556598 37 23 C33.71023192 24.09658936 32.28696233 23.79953138 29 23 C29 22.67 29 22.34 29 22 C30.65 21.67 32.3 21.34 34 21 C34 20.34 34 19.68 34 19 C32.35 19.33 30.7 19.66 29 20 C28.319375 18.9171875 28.319375 18.9171875 27.625 17.8125 C22.06785008 11.8584108 14.99062221 9.40630282 7 9 C5.33369491 8.96528531 3.66585346 8.94794208 2 9 C1.34 6.03 0.68 3.06 0 0 Z " fill="#C0C5CF" transform="translate(263,88)"/>
<path d="M0 0 C6.38259243 2.69487236 6.38259243 2.69487236 7.5859375 5.1015625 C5.68592063 7.67217356 4.41296633 8.1505166 1.2734375 9.0390625 C-3.27501097 9.11615485 -4.73423876 7.60697441 -8.4140625 5.1015625 C-11.62628521 5.16454726 -13.5100406 5.43191665 -16.1015625 7.3515625 C-17.51696964 9.13705079 -17.51696964 9.13705079 -18.6484375 11.5 C-20.75347576 14.60167142 -22.67565351 15.744794 -25.9765625 17.4765625 C-26.94722656 17.99992187 -27.91789062 18.52328125 -28.91796875 19.0625 C-29.74167969 19.40539062 -30.56539063 19.74828125 -31.4140625 20.1015625 C-32.0740625 19.7715625 -32.7340625 19.4415625 -33.4140625 19.1015625 C-33.4140625 18.4415625 -33.4140625 17.7815625 -33.4140625 17.1015625 C-34.4040625 16.7715625 -35.3940625 16.4415625 -36.4140625 16.1015625 C-35.7540625 15.7715625 -35.0940625 15.4415625 -34.4140625 15.1015625 C-34.0428125 13.956875 -34.0428125 13.956875 -33.6640625 12.7890625 C-31.98955633 9.18887423 -29.81406886 8.04442328 -26.4140625 6.1015625 C-22.94081069 4.9438119 -20.05338802 5.03289598 -16.4140625 5.1015625 C-16.07375 4.204375 -16.07375 4.204375 -15.7265625 3.2890625 C-11.86574814 -3.14562811 -6.34717288 -2.36221644 0 0 Z " fill="#DEE4ED" transform="translate(341.4140625,81.8984375)"/>
<path d="M0 0 C1.45703125 1.05078125 1.45703125 1.05078125 3 3 C3.51171875 6.35546875 3.51171875 6.35546875 3.6875 10.1875 C3.75324219 11.45980469 3.81898438 12.73210937 3.88671875 14.04296875 C3.92410156 15.01878906 3.96148438 15.99460938 4 17 C4.61617187 17.11085937 5.23234375 17.22171875 5.8671875 17.3359375 C9.36268231 18.42427837 10.27367108 20.89260795 12 24 C13.36228955 27.95063968 14 30.80858825 14 35 C14.58007812 35.01417969 15.16015625 35.02835937 15.7578125 35.04296875 C21.87784147 35.41663389 24.70984384 36.60520588 29 41 C29.66 41.99 30.32 42.98 31 44 C31.763125 44.433125 32.52625 44.86625 33.3125 45.3125 C36.72274302 47.45381538 38.72353725 49.68286856 41 53 C41.3125 56.375 41.3125 56.375 41 59 C39.68 59.66 38.36 60.32 37 61 C36 60 36 60 35.9375 56.9375 C35.958125 55.968125 35.97875 54.99875 36 54 C36.66 54 37.32 54 38 54 C37.01 53.01 36.02 52.02 35 51 C34.505 51.99 34.505 51.99 34 53 C34 51.68 34 50.36 34 49 C33.01 48.67 32.02 48.34 31 48 C31 47.34 31 46.68 31 46 C29.35 45.34 27.7 44.68 26 44 C26 43.01 26 42.02 26 41 C25.04287109 40.81824219 25.04287109 40.81824219 24.06640625 40.6328125 C23.24011719 40.46523438 22.41382813 40.29765625 21.5625 40.125 C20.73878906 39.96257812 19.91507813 39.80015625 19.06640625 39.6328125 C18.38449219 39.42398438 17.70257812 39.21515625 17 39 C16.67 38.34 16.34 37.68 16 37 C15.21625 36.855625 14.4325 36.71125 13.625 36.5625 C10.58057387 35.91012297 9.82146382 35.4838143 8 33 C6.02752402 28.98199337 5 26.5103844 5 22 C4.34 22 3.68 22 3 22 C1.7960663 18.24600202 1.90122383 14.66782588 1.9375 10.75 C1.94652344 9.48671875 1.95554687 8.2234375 1.96484375 6.921875 C1.97644531 5.95765625 1.98804688 4.9934375 2 4 C1.34 4 0.68 4 0 4 C0 2.68 0 1.36 0 0 Z " fill="#5C6176" transform="translate(538,230)"/>
<path d="M0 0 C1.32 0.33 2.64 0.66 4 1 C-0.96755787 6.25141832 -4.40826272 8.83538642 -11.5625 9.9375 C-16.16674655 10.65672142 -17.81187995 11.58415709 -21 15 C-23.33294775 15.04241723 -25.66702567 15.04092937 -28 15 C-29.69719127 15.94726954 -31.36935236 16.94228261 -33 18 C-34.32 18 -35.64 18 -37 18 C-37 18.99 -37 19.98 -37 21 C-41.50047596 23.25023798 -47.50773818 23.69833511 -52.328125 22.34765625 C-56.70238008 20.26905031 -59.62276883 17.46382684 -63 14 C-67.99236574 10.18158165 -71.78158425 9.56361995 -78 10 C-74.37827461 7.5855164 -71.35641182 6.75357671 -67 7 C-64.625 8.875 -64.625 8.875 -63 11 C-62.34 11.33 -61.68 11.66 -61 12 C-61 12.66 -61 13.32 -61 14 C-59.68 13.67 -58.36 13.34 -57 13 C-57 13.99 -57 14.98 -57 16 C-56.34 16.33 -55.68 16.66 -55 17 C-55 17.66 -55 18.32 -55 19 C-51.37 19 -47.74 19 -44 19 C-43.505 17.515 -43.505 17.515 -43 16 C-42.505 17.485 -42.505 17.485 -42 19 C-40.9275 18.505 -39.855 18.01 -38.75 17.5 C-35.74583192 16.11346089 -34.54065105 16 -31 16 C-31 15.01 -31 14.02 -31 13 C-30.05125 13.061875 -29.1025 13.12375 -28.125 13.1875 C-26.578125 13.0946875 -26.578125 13.0946875 -25 13 C-24.34 12.01 -23.68 11.02 -23 10 C-21.25 9.4375 -21.25 9.4375 -19 9 C-18.13375 8.690625 -17.2675 8.38125 -16.375 8.0625 C-11.9788195 6.67851725 -7.52680347 5.84094768 -3 5 C-3 4.34 -3 3.68 -3 3 C-2.34 3 -1.68 3 -1 3 C-0.67 2.01 -0.34 1.02 0 0 Z " fill="#474C6B" transform="translate(563,307)"/>
<path d="M0 0 C2.47516927 3.11164137 4.33633121 6.39538428 6 10 C7.2375 9.9175 8.475 9.835 9.75 9.75 C12.85152395 9.75547006 13.72804691 9.80154774 16.3125 11.6875 C18.03593702 14.04924703 19.49648508 16.49414179 21 19 C21.721875 19.721875 22.44375 20.44375 23.1875 21.1875 C23.785625 21.785625 24.38375 22.38375 25 23 C25 23.66 25 24.32 25 25 C24.34 25 23.68 25 23 25 C22.4225 24.2575 21.845 23.515 21.25 22.75 C19.08583257 19.82319151 19.08583257 19.82319151 15.75 17.875 C14.8425 17.25625 13.935 16.6375 13 16 C13 15.01 13 14.02 13 13 C10.03 12.67 7.06 12.34 4 12 C3.7525 11.195625 3.505 10.39125 3.25 9.5625 C2.27433068 6.94160298 2.27433068 6.94160298 0.3125 6.0625 C-2.23573169 5.87768858 -2.23573169 5.87768858 -5.5 7 C-8.74464378 7.92704108 -9.96548996 8.21380402 -13 7 C-13.33 7.66 -13.66 8.32 -14 9 C-16.64860427 9.59355614 -19.29197322 9.74209269 -22 10 C-22 8.35 -22 6.7 -22 5 C-19.75862303 3.87931151 -18.23721325 3.80265809 -15.75 3.625 C-10.16479467 3.07901038 -5.5002881 -1.30269981 0 0 Z " fill="#C9D5DA" transform="translate(443,115)"/>
<path d="M0 0 C0.66 0.4125 1.32 0.825 2 1.25 C3.65740715 1.62668344 5.32345271 1.97057545 7 2.25 C7 2.58 7 2.91 7 3.25 C3.37 3.25 -0.26 3.25 -4 3.25 C-4 3.91 -4 4.57 -4 5.25 C-7.89659791 8.50158284 -11.84382134 10.94168569 -16.75 12.25 C-20.25926234 13.00603453 -20.25926234 13.00603453 -22.5 16.25 C-24.87409677 19.09891612 -26.18690293 20.31156627 -29.80859375 21.0625 C-40.21459525 21.95285307 -49.58517969 19.46500324 -59 15.25 C-59.66 14.59 -60.32 13.93 -61 13.25 C-59.54096742 13.55921884 -58.08279278 13.87248799 -56.625 14.1875 C-55.81289063 14.36152344 -55.00078125 14.53554688 -54.1640625 14.71484375 C-52 15.25 -52 15.25 -50 16.25 C-49.67 15.59 -49.34 14.93 -49 14.25 C-49 15.24 -49 16.23 -49 17.25 C-42.07 17.25 -35.14 17.25 -28 17.25 C-28.66 16.92 -29.32 16.59 -30 16.25 C-29.67 15.26 -29.34 14.27 -29 13.25 C-27.6078125 13.0334375 -27.6078125 13.0334375 -26.1875 12.8125 C-22.99274889 12.32899889 -22.99274889 12.32899889 -20 11.25 C-19.67 10.59 -19.34 9.93 -19 9.25 C-18.505 9.745 -18.505 9.745 -18 10.25 C-17.4225 9.569375 -16.845 8.88875 -16.25 8.1875 C-15.13625 7.2284375 -15.13625 7.2284375 -14 6.25 C-11.75 6.5 -11.75 6.5 -10 7.25 C-10 6.59 -10 5.93 -10 5.25 C-9.34 5.25 -8.68 5.25 -8 5.25 C-7.67 4.26 -7.34 3.27 -7 2.25 C-2.79300292 -1.04737609 -2.79300292 -1.04737609 0 0 Z " fill="#5858A1" transform="translate(476,315.75)"/>
<path d="M0 0 C0.598125 0.350625 1.19625 0.70125 1.8125 1.0625 C0.843125 1.495625 -0.12625 1.92875 -1.125 2.375 C-4.46481765 3.7639861 -4.46481765 3.7639861 -5.1875 7.0625 C-5.6825 6.5675 -5.6825 6.5675 -6.1875 6.0625 C-11.35946908 5.65685537 -15.64775114 6.34144085 -20.6875 7.5625 C-28.59675415 9.38969212 -36.13119816 9.3449937 -44.1875 9.0625 C-44.5175 7.7425 -44.8475 6.4225 -45.1875 5.0625 C-42.1875 5.0625 -42.1875 5.0625 -39.1875 6.0625 C-36.84127147 5.44274152 -34.50858669 4.77062814 -32.1875 4.0625 C-31.07375 3.8975 -29.96 3.7325 -28.8125 3.5625 C-27.94625 3.3975 -27.08 3.2325 -26.1875 3.0625 C-25.8575 2.4025 -25.5275 1.7425 -25.1875 1.0625 C-24.40375 1.248125 -23.62 1.43375 -22.8125 1.625 C-20.21660225 2.32212266 -20.21660225 2.32212266 -18.1875 1.0625 C-17.1975 1.3925 -16.2075 1.7225 -15.1875 2.0625 C-13.18788436 2.10170815 -11.18700636 2.10693347 -9.1875 2.0625 C-8.8575 1.4025 -8.5275 0.7425 -8.1875 0.0625 C-7.1975 0.0625 -6.2075 0.0625 -5.1875 0.0625 C-2.1875 -0.9375 -2.1875 -0.9375 0 0 Z " fill="#9099B2" transform="translate(371.1875,320.9375)"/>
<path d="M0 0 C0.80824219 0.10183594 1.61648437 0.20367187 2.44921875 0.30859375 C3.06410156 0.39238281 3.67898437 0.47617188 4.3125 0.5625 C4.3125 1.2225 4.3125 1.8825 4.3125 2.5625 C3.3225 2.8925 2.3325 3.2225 1.3125 3.5625 C1.3125 2.9025 1.3125 2.2425 1.3125 1.5625 C0.466875 1.85125 -0.37875 2.14 -1.25 2.4375 C-4.6875 3.5625 -4.6875 3.5625 -8.3125 4.375 C-12.29758589 5.77715985 -13.30691044 7.15032163 -15.6875 10.5625 C-16.986875 11.8309375 -16.986875 11.8309375 -18.3125 13.125 C-20.42999983 15.29822351 -21.47260301 16.85234517 -22.6875 19.5625 C-23.3475 20.2225 -24.0075 20.8825 -24.6875 21.5625 C-25.6775 21.2325 -26.6675 20.9025 -27.6875 20.5625 C-30.94954729 21.74869901 -31.68795871 22.56318806 -33.6875 25.5625 C-34.6775 25.2325 -35.6675 24.9025 -36.6875 24.5625 C-40.78921877 28.99758178 -40.78921877 28.99758178 -42.6875 34.5625 C-43.3344365 36.2369239 -43.99709426 37.90552621 -44.6875 39.5625 C-45.6775 39.2325 -46.6675 38.9025 -47.6875 38.5625 C-48.26426379 35.33262279 -48.55424802 33.65652779 -47.6875 30.5625 C-44.01869677 26.61416891 -39.64641962 23.67905592 -34.98046875 21.01953125 C-32.43147137 19.61695678 -32.43147137 19.61695678 -30.6875 16.5625 C-29.73875 16.624375 -28.79 16.68625 -27.8125 16.75 C-26.265625 16.6571875 -26.265625 16.6571875 -24.6875 16.5625 C-22.52067376 13.85498108 -22.52067376 13.85498108 -20.6875 10.5625 C-15.35097504 4.48479102 -8.38990405 -1.09433531 0 0 Z " fill="#ECEEF6" transform="translate(160.6875,167.4375)"/>
<path d="M0 0 C0.99 0.33 1.98 0.66 3 1 C2.54625 1.391875 2.0925 1.78375 1.625 2.1875 C-0.27642919 4.30832487 -1.06204028 6.33042235 -2 9 C-2.66 9 -3.32 9 -4 9 C-3.67 10.258125 -3.34 11.51625 -3 12.8125 C-1.77549156 18.22793168 -1.81411052 23.47495171 -2 29 C-2.66 29.33 -3.32 29.66 -4 30 C-4.66 29.67 -5.32 29.34 -6 29 C-6.33 30.32 -6.66 31.64 -7 33 C-7.825 33.04125 -8.65 33.0825 -9.5 33.125 C-15.2985516 34.5746379 -20.01891362 38.58592537 -24 43 C-24.2475 44.0209375 -24.2475 44.0209375 -24.5 45.0625 C-25 47 -25 47 -28 49 C-28.49009412 45.87564998 -28.67446837 43.10569155 -28 40 C-25.68669585 37.63371942 -22.96670851 36.40528298 -20 35 C-18.76569351 34.27956805 -17.53609895 33.55097161 -16.3125 32.8125 C-13.56851902 31.31107644 -10.91263501 30.11365456 -8 29 C-6.32327584 27.32327584 -6.63493159 25.17523477 -6.4375 22.875 C-6.34726563 21.87339844 -6.25703125 20.87179688 -6.1640625 19.83984375 C-5.92419535 16.87724511 -5.92419535 16.87724511 -6.3125 13.4375 C-5.8312244 8.14346843 -2.93081321 4.33516121 0 0 Z " fill="#E2E9EF" transform="translate(109,219)"/>
<path d="M0 0 C0.99 0 1.98 0 3 0 C3 0.66 3 1.32 3 2 C3.99 1.67 4.98 1.34 6 1 C6.99 1.33 7.98 1.66 9 2 C9 2.66 9 3.32 9 4 C11.97 4.495 11.97 4.495 15 5 C15.33 6.32 15.66 7.64 16 9 C15.34 9 14.68 9 14 9 C13.67 9.99 13.34 10.98 13 12 C3.1619256 14.43326039 3.1619256 14.43326039 -1.6875 12.625 C-2.450625 12.08875 -3.21375 11.5525 -4 11 C-3.34 10.67 -2.68 10.34 -2 10 C-2 9.34 -2 8.68 -2 8 C-2.66 7.67 -3.32 7.34 -4 7 C-2.35 5.68 -0.7 4.36 1 3 C0.67 2.01 0.34 1.02 0 0 Z " fill="#E8EEF5" transform="translate(123,305)"/>
<path d="M0 0 C-3.96 3.465 -3.96 3.465 -8 7 C-8.33 6.34 -8.66 5.68 -9 5 C-10.68998716 5.70979461 -12.37858308 6.42315443 -14.05859375 7.15625 C-15.75947933 7.89546788 -17.47261352 8.60637027 -19.1875 9.3125 C-22.58885653 11.35331392 -24.03500824 13.59905273 -26 17 C-26.33 16.34 -26.66 15.68 -27 15 C-28.65 15 -30.3 15 -32 15 C-30.625 12.5 -30.625 12.5 -29 10 C-28.34 10 -27.68 10 -27 10 C-27 9.34 -27 8.68 -27 8 C-21.50555111 2.8940475 -15.81864481 1.19301911 -8.50390625 0.32421875 C-2.04727646 -0.51181912 -2.04727646 -0.51181912 0 0 Z " fill="#F2F5FE" transform="translate(245,90)"/>
<path d="M0 0 C4.87639277 0.14342332 9.26463756 3.0246865 13 6 C13 6.66 13 7.32 13 8 C13.7425 7.938125 14.485 7.87625 15.25 7.8125 C18.60696324 8.04138386 19.74512425 8.50353042 22 11 C22.020625 12.093125 22.04125 13.18625 22.0625 14.3125 C22.59581651 18.11823761 22.59581651 18.11823761 25.4296875 19.6484375 C27.40753998 20.6604815 29.40937143 21.62718629 31.43359375 22.54296875 C34.19882802 24.11288105 34.94815407 25.05861049 36 28 C38.64 27.34 41.28 26.68 44 26 C44 26.99 44 27.98 44 29 C37.64102564 30.34516765 37.64102564 30.34516765 34.5625 28.6875 C33 27 33 27 33 25 C31.68 25.33 30.36 25.66 29 26 C28.67 25.34 28.34 24.68 28 24 C27.01 23.67 26.02 23.34 25 23 C24.34 22.34 23.68 21.68 23 21 C22.34 21 21.68 21 21 21 C20.5875 19.865625 20.175 18.73125 19.75 17.5625 C18.45071525 13.8959257 18.45071525 13.8959257 15.875 13.1875 C15.25625 13.125625 14.6375 13.06375 14 13 C13.67 12.34 13.34 11.68 13 11 C12.01 10.67 11.02 10.34 10 10 C8.8125 7.4375 8.8125 7.4375 8 5 C6.906875 5.061875 5.81375 5.12375 4.6875 5.1875 C1 5 1 5 -0.9375 3.5 C-1.4634375 2.7575 -1.4634375 2.7575 -2 2 C-1.34 1.34 -0.68 0.68 0 0 Z " fill="#EAEEF4" transform="translate(353,89)"/>
<path d="M0 0 C0 3 0 3 -0.5625 4.9375 C-1.06292559 7.29664922 -0.73011998 8.7285156 0 11 C-0.66 11 -1.32 11 -2 11 C-2 11.66 -2 12.32 -2 13 C-1.34 13.33 -0.68 13.66 0 14 C-0.56589844 14.66386719 -1.13179687 15.32773437 -1.71484375 16.01171875 C-2.44832031 16.89472656 -3.18179688 17.77773438 -3.9375 18.6875 C-4.66839844 19.55761719 -5.39929688 20.42773438 -6.15234375 21.32421875 C-8.0266635 24.03861416 -8.81058371 25.7242124 -9 29 C-7.2085766 31.12491838 -7.2085766 31.12491838 -5 33 C-4.34 34.32 -3.68 35.64 -3 37 C1.62 37 6.24 37 11 37 C7.06499559 39.62333627 3.68681012 40.04154974 -1 40 C-3.625 39 -3.625 39 -6 37 C-6.61230469 36.49984375 -7.22460938 35.9996875 -7.85546875 35.484375 C-11.24220265 32.48295813 -12.83968643 30.85986369 -13.6875 26.3125 C-12.88082946 22.42581468 -11.91031335 21.5869452 -9 19 C-6.37666762 15.20667966 -4.70313559 11.57038135 -4 7 C-3.0625 3.75 -3.0625 3.75 -2 1 C-1.34 0.67 -0.68 0.34 0 0 Z " fill="#EBEDF7" transform="translate(74,273)"/>
<path d="M0 0 C5.80632474 -0.5278477 10.21276857 0.90658255 15.6640625 2.86328125 C20.32686352 4.45212797 25.08794641 5.60740441 29.87109375 6.77734375 C33.52383228 8.20469351 35.42864488 10.08259335 38 13 C37.67 13.99 37.34 14.98 37 16 C36.525625 15.21625 36.05125 14.4325 35.5625 13.625 C32.4911805 10.47877027 30.65678305 10.19361368 26.4609375 9.46875 C22.51256755 8.71667953 18.78134354 7.34090197 15 6 C15.66 6.33 16.32 6.66 17 7 C17 7.99 17 8.98 17 10 C16.33613281 9.9278125 15.67226563 9.855625 14.98828125 9.78125 C14.10527344 9.6884375 13.22226562 9.595625 12.3125 9.5 C11.44238281 9.4071875 10.57226562 9.314375 9.67578125 9.21875 C7.10276661 9.00840136 4.58015636 8.96280856 2 9 C1.34 6.03 0.68 3.06 0 0 Z " fill="#E1E6EE" transform="translate(263,88)"/>
<path d="M0 0 C0.66 0.33 1.32 0.66 2 1 C2 2.32 2 3.64 2 5 C3.32 5.66 4.64 6.32 6 7 C2.9884637 8.50576815 -0.18948555 8.28998876 -3.5 8.4375 C-9.10383153 8.72710531 -14.38900111 9.33758909 -19.87109375 10.58984375 C-22.96522937 11.18596162 -25.8590832 11.1365616 -29 11 C-29 10.34 -29 9.68 -29 9 C-26 7 -26 7 -23.875 6.5 C-23.25625 6.335 -22.6375 6.17 -22 6 C-21.67 5.34 -21.34 4.68 -21 4 C-20.01 4 -19.02 4 -18 4 C-18 4.66 -18 5.32 -18 6 C-16.58297487 5.85769192 -15.1663904 5.71099254 -13.75 5.5625 C-12.96109375 5.48128906 -12.1721875 5.40007812 -11.359375 5.31640625 C-9.17635361 5.02365007 -7.1226818 4.57935581 -5 4 C-5 3.34 -5 2.68 -5 2 C-2.625 0.9375 -2.625 0.9375 0 0 Z " fill="#6D757E" transform="translate(414,322)"/>
<path d="M0 0 C1.52120264 2.38267223 2.09416755 3.49522801 1.56640625 6.32421875 C0.53321279 8.75644461 -0.42051943 10.87511869 -2 13 C-4.32156597 13.40729228 -6.6568787 13.74438677 -9 14 C-10.5940064 16.26839373 -11.16877022 18.31072717 -12 21 C-12.66 21 -13.32 21 -14 21 C-14 22.32 -14 23.64 -14 25 C-19.1468192 28.16727335 -23.158256 28.35050464 -29 28 C-29 27.01 -29 26.02 -29 25 C-26.03 25 -23.06 25 -20 25 C-19.47212891 23.91332031 -19.47212891 23.91332031 -18.93359375 22.8046875 C-16.11849062 17.29208346 -13.5893694 12.97083486 -8.61328125 9.21875 C-6.93969632 8.02266841 -6.93969632 8.02266841 -5.48046875 6.40625 C-4 5 -4 5 -1 4 C-0.26676204 1.98491642 -0.26676204 1.98491642 0 0 Z " fill="#D7DFE8" transform="translate(196,141)"/>
<path d="M0 0 C0.33 0.66 0.66 1.32 1 2 C0.67 2.66 0.34 3.32 0 4 C-0.66 4 -1.32 4 -2 4 C-2.33 5.65 -2.66 7.3 -3 9 C-3.66 9 -4.32 9 -5 9 C-6.25664978 11.90600261 -7 13.79604584 -7 17 C-7.99 17.33 -8.98 17.66 -10 18 C-10.1546875 19.0209375 -10.1546875 19.0209375 -10.3125 20.0625 C-11.14725019 23.62915989 -12.49472754 26.66222194 -14 30 C-14.66 30 -15.32 30 -16 30 C-15.67 30.66 -15.34 31.32 -15 32 C-14.01 32 -13.02 32 -12 32 C-12 33.65 -12 35.3 -12 37 C-12.66 37 -13.32 37 -14 37 C-14.66 37.99 -15.32 38.98 -16 40 C-16.99 40 -17.98 40 -19 40 C-19.33 40.99 -19.66 41.98 -20 43 C-21.65953322 39.68093355 -20.13433147 36.77838596 -19.140625 33.33203125 C-15.08270749 21.47790922 -9.17281047 8.6931864 0 0 Z " fill="#FDFBFE" transform="translate(211,106)"/>
<path d="M0 0 C1.45703125 1.05078125 1.45703125 1.05078125 3 3 C3.51171875 6.35546875 3.51171875 6.35546875 3.6875 10.1875 C3.75324219 11.45980469 3.81898438 12.73210937 3.88671875 14.04296875 C3.92410156 15.01878906 3.96148438 15.99460938 4 17 C4.61488281 17.10570312 5.22976563 17.21140625 5.86328125 17.3203125 C9.28405957 18.4084577 10.2593143 20.99881776 12 24 C13.28317892 27.84953676 13.06643637 30.94738135 13 35 C10.6875 34.4375 10.6875 34.4375 8 33 C5.85884613 29.01302384 5 26.54765452 5 22 C4.34 22 3.68 22 3 22 C1.7960663 18.24600202 1.90122383 14.66782588 1.9375 10.75 C1.94652344 9.48671875 1.95554687 8.2234375 1.96484375 6.921875 C1.97644531 5.95765625 1.98804688 4.9934375 2 4 C1.34 4 0.68 4 0 4 C0 2.68 0 1.36 0 0 Z " fill="#656B83" transform="translate(538,230)"/>
<path d="M0 0 C1.8203125 1.03515625 1.8203125 1.03515625 2.8203125 3.03515625 C0.88634071 5.65170632 -0.4175317 6.10434729 -3.6171875 7.03515625 C-4.7928125 7.03515625 -5.9684375 7.03515625 -7.1796875 7.03515625 C-8.55451457 5.40254911 -9.88616417 3.73290563 -11.1796875 2.03515625 C-14.82151085 1.14459889 -14.82151085 1.14459889 -18.1796875 1.03515625 C-17.8671875 -0.90234375 -17.8671875 -0.90234375 -17.1796875 -2.96484375 C-11.01904105 -5.01839257 -5.64572132 -2.51665205 0 0 Z " fill="#C8CFDA" transform="translate(346.1796875,83.96484375)"/>
<path d="M0 0 C0.66 0 1.32 0 2 0 C2.66 0.66 3.32 1.32 4 2 C10.22816887 3.82054167 15.30599645 2.50305806 21.33984375 0.64453125 C25.27250647 -0.30831654 28.08386192 0.05722602 32 1 C32.495 1.99 32.495 1.99 33 3 C30.54443298 3.75555908 28.65750078 3.99271278 26.0625 3.9375 C23.04944535 3.80852191 23.04944535 3.80852191 20.6796875 4.98828125 C14.28067795 7.40423383 6.19560708 6.75360315 0 4 C0 2.68 0 1.36 0 0 Z " fill="#919AB7" transform="translate(195,325)"/>
<path d="M0 0 C0.763125 0.20625 1.52625 0.4125 2.3125 0.625 C2.36148438 1.21667969 2.41046875 1.80835938 2.4609375 2.41796875 C2.90464634 9.57253191 2.90464634 9.57253191 6.3125 15.625 C6.5 19.0625 6.5 19.0625 6.3125 22.625 C5.6525 23.285 4.9925 23.945 4.3125 24.625 C4.37760417 22.60677083 4.44270833 20.58854167 4.5078125 18.5703125 C4.49581689 16.38636355 4.49581689 16.38636355 2.3125 14.625 C2.02375 13.635 1.735 12.645 1.4375 11.625 C0.61050558 8.54877186 0.61050558 8.54877186 -1.6875 7.25 C-3.65642969 6.525575 -3.65642969 6.525575 -5.6875 6.625 C-6.6775 6.625 -7.6675 6.625 -8.6875 6.625 C-4.66647727 -0.65113636 -4.66647727 -0.65113636 0 0 Z " fill="#808AA4" transform="translate(529.6875,201.375)"/>
<path d="M0 0 C0.66 0.4125 1.32 0.825 2 1.25 C3.65740715 1.62668344 5.32345271 1.97057545 7 2.25 C7 2.58 7 2.91 7 3.25 C3.37 3.25 -0.26 3.25 -4 3.25 C-4 3.91 -4 4.57 -4 5.25 C-9.86960819 10.45293664 -16.45314885 12.64188592 -24 14.25 C-24 14.91 -24 15.57 -24 16.25 C-24.66 16.25 -25.32 16.25 -26 16.25 C-26 15.26 -26 14.27 -26 13.25 C-25.030625 12.96125 -24.06125 12.6725 -23.0625 12.375 C-19.89335797 11.60785318 -19.89335797 11.60785318 -19 9.25 C-18.67 9.58 -18.34 9.91 -18 10.25 C-17.4225 9.569375 -16.845 8.88875 -16.25 8.1875 C-15.13625 7.2284375 -15.13625 7.2284375 -14 6.25 C-11.75 6.5 -11.75 6.5 -10 7.25 C-10 6.59 -10 5.93 -10 5.25 C-9.34 5.25 -8.68 5.25 -8 5.25 C-7.67 4.26 -7.34 3.27 -7 2.25 C-2.79300292 -1.04737609 -2.79300292 -1.04737609 0 0 Z " fill="#4A4D71" transform="translate(476,315.75)"/>
<path d="M0 0 C1.32 1.32 2.64 2.64 4 4 C5.65 2.68 7.3 1.36 9 0 C8.6875 1.875 8.6875 1.875 8 4 C7.01 4.66 6.02 5.32 5 6 C4.26656572 9.06556598 4.26656572 9.06556598 4 12 C0.71023192 13.09658936 -0.71303767 12.79953138 -4 12 C-4 11.67 -4 11.34 -4 11 C-2.35 10.67 -0.7 10.34 1 10 C1 9.34 1 8.68 1 8 C-0.65 8.33 -2.3 8.66 -4 9 C-4 6.69 -4 4.38 -4 2 C-2.68 2.33 -1.36 2.66 0 3 C0 2.01 0 1.02 0 0 Z " fill="#B8C2C9" transform="translate(296,99)"/>
<path d="M0 0 C1.32 0.33 2.64 0.66 4 1 C-1.89402216 7.23082342 -6.06437194 9.26873932 -14.4765625 10.375 C-17.23049456 11.05708844 -18.24047133 11.82715923 -20 14 C-20.66 13.67 -21.32 13.34 -22 13 C-22 12.34 -22 11.68 -22 11 C-19.0304187 8.21251567 -16.47441644 7.47552996 -12.5 6.875 C-9.28399757 6.37139522 -6.14512879 5.84562425 -3 5 C-3 4.34 -3 3.68 -3 3 C-2.34 3 -1.68 3 -1 3 C-0.67 2.01 -0.34 1.02 0 0 Z " fill="#4E6274" transform="translate(563,307)"/>
<path d="M0 0 C3.5625 0.125 3.5625 0.125 5.5625 1.125 C5.5625 2.115 5.5625 3.105 5.5625 4.125 C6.8825 4.785 8.2025 5.445 9.5625 6.125 C8.5725 6.62 8.5725 6.62 7.5625 7.125 C6.5725 6.795 5.5825 6.465 4.5625 6.125 C3.5725 7.61 3.5725 7.61 2.5625 9.125 C0.2525 8.135 -2.0575 7.145 -4.4375 6.125 C-4.480221 4.45888095 -4.47813832 2.79117115 -4.4375 1.125 C-3.4375 0.125 -3.4375 0.125 0 0 Z " fill="#565C6D" transform="translate(419.4375,321.875)"/>
<path d="M0 0 C0.33 0.99 0.66 1.98 1 3 C1.66 3 2.32 3 3 3 C3 3.99 3 4.98 3 6 C2.34 6 1.68 6 1 6 C1 7.32 1 8.64 1 10 C-4.1468192 13.16727335 -8.158256 13.35050464 -14 13 C-14 12.01 -14 11.02 -14 10 C-11.03 10 -8.06 10 -5 10 C-3.35 6.7 -1.7 3.4 0 0 Z " fill="#F1F5F2" transform="translate(181,156)"/>
<path d="M0 0 C3.74249678 0.93562419 5.42695386 2.20892004 7.375 5.4375 C9 9 9 9 8 12 C6.68 11.67 5.36 11.34 4 11 C4 9.68 4 8.36 4 7 C1.525 6.01 1.525 6.01 -1 5 C-0.67 3.35 -0.34 1.7 0 0 Z M2 11 C2.99 11.495 2.99 11.495 4 12 C3.01 12.495 3.01 12.495 2 13 C2 12.34 2 11.68 2 11 Z " fill="#9BA2B9" transform="translate(504,182)"/>
<path d="M0 0 C4.81659571 0.61593296 9.43446828 1.49231897 14.125 2.75 C15.30320312 3.05421875 16.48140625 3.3584375 17.6953125 3.671875 C21.42123065 5.16928891 23.37272853 7.00590195 26 10 C25.67 10.99 25.34 11.98 25 13 C24.525625 12.21625 24.05125 11.4325 23.5625 10.625 C20.48797959 7.47549128 18.64904521 7.19373925 14.44921875 6.46484375 C10.50221545 5.71573148 6.78264779 4.3292437 3 3 C2.01 2.67 1.02 2.34 0 2 C0 1.34 0 0.68 0 0 Z " fill="#FFFDFC" transform="translate(275,91)"/>
<path d="M0 0 C0.66 0.33 1.32 0.66 2 1 C2 2.32 2 3.64 2 5 C3.32 5.66 4.64 6.32 6 7 C3.43106162 8.28446919 1.23423663 8.32977144 -1.625 8.5625 C-2.62789063 8.64628906 -3.63078125 8.73007812 -4.6640625 8.81640625 C-5.43492187 8.87699219 -6.20578125 8.93757813 -7 9 C-6.0162413 3.32018561 -6.0162413 3.32018561 -3 1 C-2.01 0.67 -1.02 0.34 0 0 Z " fill="#6B737E" transform="translate(414,322)"/>
<path d="M0 0 C0.33 0.66 0.66 1.32 1 2 C1.99 2.33 2.98 2.66 4 3 C3.67 3.66 3.34 4.32 3 5 C-0.0625 5.625 -0.0625 5.625 -3 6 C-3 6.66 -3 7.32 -3 8 C-0.56199034 7.69112547 1.87535367 7.37805338 4.3125 7.0625 C5.00279297 6.97548828 5.69308594 6.88847656 6.40429688 6.79882812 C9.40142288 6.40789865 12.12450119 5.9584996 15 5 C17.1875 5.9375 17.1875 5.9375 19 7 C15.91879316 7.5339744 12.83482141 8.04985551 9.75 8.5625 C8.87730469 8.71396484 8.00460937 8.86542969 7.10546875 9.02148438 C5.83896484 9.2293457 5.83896484 9.2293457 4.546875 9.44140625 C3.77182617 9.57232666 2.99677734 9.70324707 2.19824219 9.83813477 C-0.11173847 10.00822774 -1.80085213 9.68559092 -4 9 C-4 7.68 -4 6.36 -4 5 C-3.34 5 -2.68 5 -2 5 C-1.7834375 4.0409375 -1.7834375 4.0409375 -1.5625 3.0625 C-1 1 -1 1 0 0 Z " fill="#5C9FA8" transform="translate(388,325)"/>
<path d="M0 0 C-1.08231478 2.52540116 -2.06855624 4.06647878 -4.0625 6 C-6.14440482 8.14906305 -6.34465113 9.191362 -7 12 C-7.99 12.66 -8.98 13.32 -10 14 C-10.49054666 10.87276503 -10.69572611 8.10480755 -10 5 C-7.28984721 2.28984721 -3.92265524 0 0 0 Z " fill="#F5F9FC" transform="translate(91,254)"/>
<path d="M0 0 C2.5 -0.5 2.5 -0.5 6 0 C7.8984375 1.78125 7.8984375 1.78125 9.875 4 C12.59476895 7.07157974 12.59476895 7.07157974 16.2890625 8.53125 C18.72437429 8.54378963 18.72437429 8.54378963 22 8 C21.01 8.495 21.01 8.495 20 9 C20.33 9.99 20.66 10.98 21 12 C20.01 12.495 20.01 12.495 19 13 C18.34 12.34 17.68 11.68 17 11 C15.824375 11.0928125 15.824375 11.0928125 14.625 11.1875 C12 11 12 11 9.8125 8.6875 C8.53633323 6.79525272 7.2660297 4.89904455 6 3 C2.93443402 2.26656572 2.93443402 2.26656572 0 2 C0 1.34 0 0.68 0 0 Z " fill="#E1E4EE" transform="translate(398,114)"/>
<path d="M0 0 C0.66 0.33 1.32 0.66 2 1 C2.625 4.0625 2.625 4.0625 3 7 C1.02 7 -0.96 7 -3 7 C-3.33 7.99 -3.66 8.98 -4 10 C-4.33 9.01 -4.66 8.02 -5 7 C-5.66 7 -6.32 7 -7 7 C-7.33 6.01 -7.66 5.02 -8 4 C-6.71349294 3.30289269 -5.42059335 2.61757124 -4.125 1.9375 C-3.40570313 1.55464844 -2.68640625 1.17179687 -1.9453125 0.77734375 C-1.30335938 0.52082031 -0.66140625 0.26429688 0 0 Z " fill="#707C93" transform="translate(374,321)"/>
<path d="M0 0 C0.7734375 0.2165625 0.7734375 0.2165625 1.5625 0.4375 C4.07727962 1.06159128 4.07727962 1.06159128 7 1.375 C11.46067404 1.97103834 15.75725163 3.17994546 20.109375 4.30078125 C23.40789986 5.09866767 26.63134631 5.61719844 30 6 C30 6.33 30 6.66 30 7 C23.85579456 7.22252656 18.92752293 6.78944089 13 5 C11.80375 5 10.6075 5 9.375 5 C5.96440024 5 3.96243813 4.65548013 1 3 C0.67 2.01 0.34 1.02 0 0 Z " fill="#DDE7EE" transform="translate(86,311)"/>
<path d="M0 0 C0.33 0.66 0.66 1.32 1 2 C2.11375 1.938125 3.2275 1.87625 4.375 1.8125 C6.169375 1.9053125 6.169375 1.9053125 8 2 C8.99 3.485 8.99 3.485 10 5 C8.4221875 4.6596875 8.4221875 4.6596875 6.8125 4.3125 C2.56094341 3.96401175 1.33739702 4.52079078 -2 7 C-2.99 7.495 -2.99 7.495 -4 8 C-4 7.01 -4 6.02 -4 5 C-4.9075 5.350625 -5.815 5.70125 -6.75 6.0625 C-9.87758436 6.96468779 -11.05208081 7.13381507 -14 6 C-9.8794254 4.00214565 -6.54805635 3.82164485 -2 4 C-1.34 2.68 -0.68 1.36 0 0 Z " fill="#E9EFF5" transform="translate(327,83)"/>
<path d="M0 0 C0.99 0 1.98 0 3 0 C3 0.66 3 1.32 3 2 C3.99 1.67 4.98 1.34 6 1 C6.99 1.33 7.98 1.66 9 2 C9 2.99 9 3.98 9 5 C7.02 5 5.04 5 3 5 C3 5.66 3 6.32 3 7 C2.01 7 1.02 7 0 7 C-0.33 7.99 -0.66 8.98 -1 10 C-1.99 9.01 -2.98 8.02 -4 7 C-2.35 5.68 -0.7 4.36 1 3 C0.67 2.01 0.34 1.02 0 0 Z " fill="#CCD3DE" transform="translate(123,305)"/>
<path d="M0 0 C1.98 0 3.96 0 6 0 C5.34 1.32 4.68 2.64 4 4 C3.01 4 2.02 4 1 4 C0.773125 4.94875 0.54625 5.8975 0.3125 6.875 C-1 10 -1 10 -3.625 11.375 C-4.40875 11.58125 -5.1925 11.7875 -6 12 C-4.125 7.25 -4.125 7.25 -3 5 C-2.34 5 -1.68 5 -1 5 C-0.67 3.35 -0.34 1.7 0 0 Z " fill="#CFDBFA" transform="translate(212,105)"/>
<path d="M0 0 C0.66 0.66 1.32 1.32 2 2 C0.7874262 5.72433382 -0.50859979 9.37802806 -2 13 C-2.99 12.67 -3.98 12.34 -5 12 C-5.44041451 6.71502591 -5.44041451 6.71502591 -5 4 C-2.5 1.5 -2.5 1.5 0 0 Z " fill="#DBE3ED" transform="translate(118,194)"/>
<path d="M0 0 C0.375 2.75 0.375 2.75 0 6 C-4.84210526 10 -4.84210526 10 -8 10 C-7.67 8.68 -7.34 7.36 -7 6 C-6.34 6 -5.68 6 -5 6 C-5.33 4.35 -5.66 2.7 -6 1 C-3.92446352 0.4465236 -2.15634036 0 0 0 Z " fill="#DBE1EB" transform="translate(323,88)"/>
<path d="M0 0 C1.32 0.66 2.64 1.32 4 2 C3.67 2.99 3.34 3.98 3 5 C2.34 5 1.68 5 1 5 C0.67 5.99 0.34 6.98 0 8 C-0.33 7.34 -0.66 6.68 -1 6 C-1.66 6 -2.32 6 -3 6 C-3.33 6.99 -3.66 7.98 -4 9 C-3.34 9.33 -2.68 9.66 -2 10 C-5.24271506 9.4409112 -6.93057424 8.5867822 -9 6 C-9 5.34 -9 4.68 -9 4 C-8.34 4 -7.68 4 -7 4 C-6.67 4.33 -6.34 4.66 -6 5 C-5.67 4.34 -5.34 3.68 -5 3 C-3.35 3 -1.7 3 0 3 C0 2.01 0 1.02 0 0 Z " fill="#999FAF" transform="translate(376,324)"/>
<path d="M0 0 C3.875 1.75 3.875 1.75 5 4 C5.039992 5.99960012 5.04346799 8.00047242 5 10 C3.02 10.99 3.02 10.99 1 12 C0 11 0 11 -0.0625 7.9375 C-0.041875 6.968125 -0.02125 5.99875 0 5 C0.66 5 1.32 5 2 5 C1.34 3.35 0.68 1.7 0 0 Z " fill="#5B637A" transform="translate(574,279)"/>
<path d="M0 0 C0.33 1.32 0.66 2.64 1 4 C1.62648438 4.04898437 2.25296875 4.09796875 2.8984375 4.1484375 C3.71570313 4.22320312 4.53296875 4.29796875 5.375 4.375 C6.59316406 4.47941406 6.59316406 4.47941406 7.8359375 4.5859375 C10 5 10 5 12 7 C12 7.99 12 8.98 12 10 C10.68528432 9.71848913 9.37324233 9.42446661 8.0625 9.125 C7.33160156 8.96257812 6.60070312 8.80015625 5.84765625 8.6328125 C4 8 4 8 3 6 C0.47266765 5.34444881 0.47266765 5.34444881 -2 5 C-1.34 3.35 -0.68 1.7 0 0 Z " fill="#4A507F" transform="translate(551,261)"/>
<path d="M0 0 C1.22589844 0.01353516 1.22589844 0.01353516 2.4765625 0.02734375 C3.41628906 0.04474609 3.41628906 0.04474609 4.375 0.0625 C3.375 2.5 3.375 2.5 1.375 5.0625 C-1.35214162 5.82631481 -3.76667178 5.92192648 -6.625 6.0625 C-6.625 4.4125 -6.625 2.7625 -6.625 1.0625 C-4.21954362 -0.14022819 -2.67503047 -0.03821472 0 0 Z " fill="#E3E9EE" transform="translate(427.625,118.9375)"/>
<path d="M0 0 C0.99 0.33 1.98 0.66 3 1 C2.54625 1.391875 2.0925 1.78375 1.625 2.1875 C-0.27642919 4.30832487 -1.06204028 6.33042235 -2 9 C-2.66 9 -3.32 9 -4 9 C-3.67 11.97 -3.34 14.94 -3 18 C-3.66 18.33 -4.32 18.66 -5 19 C-6.52506274 15.94987452 -6.66155966 13.28395832 -6 10 C-4.24954563 6.4939879 -2.19324331 3.2441724 0 0 Z " fill="#F9FBFF" transform="translate(109,219)"/>
<path d="M0 0 C0.66 0.33 1.32 0.66 2 1 C2 1.66 2 2.32 2 3 C2.61488281 2.96519531 3.22976563 2.93039062 3.86328125 2.89453125 C5.07564453 2.85392578 5.07564453 2.85392578 6.3125 2.8125 C7.51326172 2.76029297 7.51326172 2.76029297 8.73828125 2.70703125 C11 3 11 3 14 6 C9.71 6 5.42 6 1 6 C0.67 5.34 0.34 4.68 0 4 C-0.99 3.67 -1.98 3.34 -3 3 C-3 2.34 -3 1.68 -3 1 C-2.01 0.67 -1.02 0.34 0 0 Z " fill="#8A96A7" transform="translate(311,322)"/>
<path d="M0 0 C3.30867531 2.20578354 4.11656068 3.23312136 6 7 C10.62 7 15.24 7 20 7 C16.08193758 9.61204162 12.67368876 10.07405493 8 10 C5.125 8.75 5.125 8.75 3 7 C2.401875 6.525625 1.80375 6.05125 1.1875 5.5625 C0 4 0 4 0 0 Z " fill="#DFE7F1" transform="translate(65,303)"/>
<path d="M0 0 C-0.33 1.65 -0.66 3.3 -1 5 C-1.66 4.67 -2.32 4.34 -3 4 C-4.37342831 3.9310528 -5.75002102 3.91532292 -7.125 3.9375 C-9.043125 3.9684375 -9.043125 3.9684375 -11 4 C-10.6875 2.0625 -10.6875 2.0625 -10 0 C-6.30581799 -1.231394 -3.7943739 -0.64432764 0 0 Z " fill="#C0CAD7" transform="translate(339,81)"/>
<path d="M0 0 C1.32 0.66 2.64 1.32 4 2 C4 2.99 4 3.98 4 5 C0.73386305 6.91302307 -1.99445248 7.35674661 -5.75 7.625 C-6.73484375 7.69976562 -7.7196875 7.77453125 -8.734375 7.8515625 C-9.48203125 7.90054687 -10.2296875 7.94953125 -11 8 C-10.67 7.34 -10.34 6.68 -10 6 C-7.93359375 5.3671875 -7.93359375 5.3671875 -5.4375 4.875 C-4.61121094 4.70742188 -3.78492188 4.53984375 -2.93359375 4.3671875 C-1.97646484 4.18542969 -1.97646484 4.18542969 -1 4 C-0.67 2.68 -0.34 1.36 0 0 Z " fill="#CED5E0" transform="translate(135,309)"/>
<path d="M0 0 C-3.43112739 2.11146301 -6.03105481 2.08444564 -10 2 C-10.99 2.33 -11.98 2.66 -13 3 C-13 2.34 -13 1.68 -13 1 C-14.65 1 -16.3 1 -18 1 C-18 0.67 -18 0.34 -18 0 C-11.4655471 -2.09102493 -6.46183389 -3.04086301 0 0 Z " fill="#949BAF" transform="translate(228,327)"/>
<path d="M0 0 C3.3 0.33 6.6 0.66 10 1 C10.33 1.99 10.66 2.98 11 4 C12.98 4 14.96 4 17 4 C17 4.33 17 4.66 17 5 C11.72 4.67 6.44 4.34 1 4 C0.67 2.68 0.34 1.36 0 0 Z " fill="#AAB2C9" transform="translate(301,324)"/>
<path d="M0 0 C-0.99 2.31 -1.98 4.62 -3 7 C-3.99 6.34 -4.98 5.68 -6 5 C-6.99 5.66 -7.98 6.32 -9 7 C-9.33 6.34 -9.66 5.68 -10 5 C-9.505 4.54625 -9.01 4.0925 -8.5 3.625 C-6.77390663 2.12364481 -6.77390663 2.12364481 -7 0 C-3.86650268 -1.04449911 -3.01031744 -0.93423645 0 0 Z " fill="#939BB2" transform="translate(531,202)"/>
<path d="M0 0 C1.0828125 0.495 1.0828125 0.495 2.1875 1 C5.01697427 2.00603529 7.02895466 2.16977402 10 2 C10.33 2.99 10.66 3.98 11 5 C7.37 5 3.74 5 0 5 C-0.33 3.68 -0.66 2.36 -1 1 C-0.67 0.67 -0.34 0.34 0 0 Z " fill="#8690A9" transform="translate(327,325)"/>
<path d="M0 0 C0.33 0 0.66 0 1 0 C1.31428571 6.91428571 1.31428571 6.91428571 -1 10 C-2.64551962 10.71727778 -4.31422289 11.38325228 -6 12 C-7.77277259 13.52007842 -7.77277259 13.52007842 -9 15 C-7.52307692 8.47692308 -7.52307692 8.47692308 -4.875 6.0625 C-4.25625 5.711875 -3.6375 5.36125 -3 5 C-2.34 5.33 -1.68 5.66 -1 6 C-0.67 4.02 -0.34 2.04 0 0 Z " fill="#424A58" transform="translate(576,292)"/>
<path d="M0 0 C0.33 0.99 0.66 1.98 1 3 C0.360625 3.37125 -0.27875 3.7425 -0.9375 4.125 C-3.63858072 6.58052793 -3.68407005 8.44578805 -4 12 C-7.28976808 13.09658936 -8.71303767 12.79953138 -12 12 C-12 11.67 -12 11.34 -12 11 C-10.35 10.67 -8.7 10.34 -7 10 C-6.95875 9.278125 -6.9175 8.55625 -6.875 7.8125 C-5.61647835 3.76725183 -3.36410883 2.50518743 0 0 Z " fill="#D3D7E4" transform="translate(304,99)"/>
<path d="M0 0 C0.66 0.33 1.32 0.66 2 1 C1.67 1.66 1.34 2.32 1 3 C1.66 3.33 2.32 3.66 3 4 C2.67 4.33 2.34 4.66 2 5 C0.39125 4.938125 0.39125 4.938125 -1.25 4.875 C-5.31902207 5.01063407 -6.6566187 5.88839076 -10 8 C-12.8125 8.1875 -12.8125 8.1875 -15 8 C-12 6 -12 6 -8 6 C-8 5.01 -8 4.02 -8 3 C-7.05125 3.061875 -6.1025 3.12375 -5.125 3.1875 C-3.578125 3.0946875 -3.578125 3.0946875 -2 3 C-1.34 2.01 -0.68 1.02 0 0 Z " fill="#525A6C" transform="translate(540,317)"/>
<path d="M0 0 C8.57142857 0.85714286 8.57142857 0.85714286 12 3 C12 3.99 12 4.98 12 6 C12.99 6.33 13.98 6.66 15 7 C13.02 7 11.04 7 9 7 C8.67 6.34 8.34 5.68 8 5 C5.97536745 4.34786708 5.97536745 4.34786708 4 4 C4 3.01 4 2.02 4 1 C2.68 0.67 1.36 0.34 0 0 Z " fill="#D2D8E6" transform="translate(515,194)"/>
<path d="M0 0 C1.45903258 0.30921884 2.91720722 0.62248799 4.375 0.9375 C5.18710937 1.11152344 5.99921875 1.28554688 6.8359375 1.46484375 C9 2 9 2 11 3 C11.33 2.34 11.66 1.68 12 1 C12 1.99 12 2.98 12 4 C13.65 4 15.3 4 17 4 C17 4.99 17 5.98 17 7 C14.91372395 6.40607459 12.83106262 5.79944242 10.75 5.1875 C9.58984375 4.85105469 8.4296875 4.51460938 7.234375 4.16796875 C4.27798685 3.10038414 2.35652294 2.03570917 0 0 Z " fill="#5353BE" transform="translate(415,329)"/>
<path d="M0 0 C0.66 0 1.32 0 2 0 C1.67 1.65 1.34 3.3 1 5 C-2.3 5.33 -5.6 5.66 -9 6 C-9.33 5.34 -9.66 4.68 -10 4 C-6.88909677 1.23475269 -5.11713174 0.77745234 -1 1 C-0.67 0.67 -0.34 0.34 0 0 Z " fill="#60697B" transform="translate(406,326)"/>
<path d="M0 0 C1.4540625 1.2375 1.4540625 1.2375 2.9375 2.5 C5.47022001 5.10539608 5.47022001 5.10539608 7 5 C7 6.98 7 8.96 7 11 C3.78078148 10.06812096 2.34301014 9.62068502 0.6875 6.625 C0 4 0 4 0 0 Z " fill="#63707F" transform="translate(544,254)"/>
<path d="M0 0 C0.8353125 0.556875 0.8353125 0.556875 1.6875 1.125 C0.718125 1.558125 -0.25125 1.99125 -1.25 2.4375 C-4.58981765 3.8264861 -4.58981765 3.8264861 -5.3125 7.125 C-7.7875 6.135 -7.7875 6.135 -10.3125 5.125 C-9.6525 4.795 -8.9925 4.465 -8.3125 4.125 C-7.9825 3.135 -7.6525 2.145 -7.3125 1.125 C-4.44620079 -0.50181847 -3.14524798 -1.19009383 0 0 Z " fill="#9BA2B1" transform="translate(371.3125,320.875)"/>
<path d="M0 0 C2.1875 1.9375 2.1875 1.9375 4 4 C4.66 4.33 5.32 4.66 6 5 C6 5.66 6 6.32 6 7 C2.59687262 5.94124926 -0.01353231 4.99097846 -3 3 C-5.05709596 2.75944532 -5.05709596 2.75944532 -7.1875 2.875 C-8.445625 2.91625 -9.70375 2.9575 -11 3 C-7.26006118 0.50670745 -4.46836149 -0.54492213 0 0 Z " fill="#595E72" transform="translate(496,314)"/>
<path d="M0 0 C2.97 0 5.94 0 9 0 C9 1.65 9 3.3 9 5 C6.1875 5.3125 6.1875 5.3125 3 5 C1.125 2.5 1.125 2.5 0 0 Z " fill="#9FA3B6" transform="translate(141,314)"/>
<path d="M0 0 C1.32 0 2.64 0 4 0 C4.33 1.65 4.66 3.3 5 5 C5.99 5.33 6.98 5.66 8 6 C8 6.33 8 6.66 8 7 C6.02 7 4.04 7 2 7 C1.01 5.02 0.02 3.04 -1 1 C-0.67 0.67 -0.34 0.34 0 0 Z " fill="#9CA9C0" transform="translate(160,312)"/>
<path d="M0 0 C0 3 0 3 -0.5625 4.9375 C-1.06292559 7.29664922 -0.73011998 8.7285156 0 11 C-0.66 11 -1.32 11 -2 11 C-2 11.66 -2 12.32 -2 13 C-2.99 12.67 -3.98 12.34 -5 12 C-4.32823171 8.19331304 -3.39463134 4.60963407 -2 1 C-1.34 0.67 -0.68 0.34 0 0 Z " fill="#EDF0F4" transform="translate(74,273)"/>
<path d="M0 0 C0.33 0 0.66 0 1 0 C0.67 2.64 0.34 5.28 0 8 C-8.03571429 11.08035714 -8.03571429 11.08035714 -12 12 C-12 11.34 -12 10.68 -12 10 C-9.49277775 8.28076189 -7.20723112 7.0674706 -4.3125 6.125 C-1.75182625 5.16937405 -1.75182625 5.16937405 -0.6875 2.375 C-0.460625 1.59125 -0.23375 0.8075 0 0 Z " fill="#EAF0F6" transform="translate(103,243)"/>
<path d="M0 0 C0.80824219 0.10183594 1.61648437 0.20367187 2.44921875 0.30859375 C3.06410156 0.39238281 3.67898437 0.47617188 4.3125 0.5625 C4.3125 1.2225 4.3125 1.8825 4.3125 2.5625 C3.3225 2.8925 2.3325 3.2225 1.3125 3.5625 C1.3125 2.9025 1.3125 2.2425 1.3125 1.5625 C0.425625 1.913125 -0.46125 2.26375 -1.375 2.625 C-4.74953126 3.58005602 -6.38436152 3.53401132 -9.6875 2.5625 C-6.54519271 -0.57980729 -4.18151679 -0.54541523 0 0 Z " fill="#EFF7FB" transform="translate(160.6875,167.4375)"/>
<path d="M0 0 C1.65 0.33 3.3 0.66 5 1 C5 1.99 5 2.98 5 4 C4.34 4 3.68 4 3 4 C2.67 4.99 2.34 5.98 2 7 C0.68 7 -0.64 7 -2 7 C-1.125 2.125 -1.125 2.125 0 1 C0 0.67 0 0.34 0 0 Z " fill="#CAD1DF" transform="translate(313,90)"/>
<path d="M0 0 C1.32 0 2.64 0 4 0 C6.25 2.5 6.25 2.5 8 5 C4.62182575 5.84454356 2.32534757 6.10844919 -1 5 C-1 4.34 -1 3.68 -1 3 C-0.34 3 0.32 3 1 3 C0.67 2.01 0.34 1.02 0 0 Z " fill="#4C566C" transform="translate(441,328)"/>
<path d="M0 0 C1.32 0.33 2.64 0.66 4 1 C0.88983545 4.28788824 -2.01618925 6.83735988 -6 9 C-6.33 8.01 -6.66 7.02 -7 6 C-5.68 5.67 -4.36 5.34 -3 5 C-3 4.34 -3 3.68 -3 3 C-2.34 3 -1.68 3 -1 3 C-0.67 2.01 -0.34 1.02 0 0 Z " fill="#3E467C" transform="translate(563,307)"/>
<path d="M0 0 C6.43985624 -0.67081836 9.83783423 1.24569762 15 5 C14.34 5.66 13.68 6.32 13 7 C11.0625 6.875 11.0625 6.875 9 6 C8.54625 5.34 8.0925 4.68 7.625 4 C6.07392227 1.67479988 6.07392227 1.67479988 2.8125 1.25 C1.884375 1.1675 0.95625 1.085 0 1 C0 0.67 0 0.34 0 0 Z " fill="#D7DDE9" transform="translate(329,84)"/>
<path d="M0 0 C2.475 0.99 2.475 0.99 5 2 C5 2.66 5 3.32 5 4 C3.68 3.67 2.36 3.34 1 3 C1 3.66 1 4.32 1 5 C1.99 5 2.98 5 4 5 C4 5.99 4 6.98 4 8 C2.68 7.67 1.36 7.34 0 7 C-1.125 2.25 -1.125 2.25 0 0 Z " fill="#5A5E74" transform="translate(430,323)"/>
<path d="M0 0 C0.99 0 1.98 0 3 0 C2.5 1.875 2.5 1.875 1 4 C-1.65177645 4.98494554 -4.20547307 5.45912382 -7 6 C-7 6.66 -7 7.32 -7 8 C-7.66 8 -8.32 8 -9 8 C-9 7.01 -9 6.02 -9 5 C-8.030625 4.71125 -7.06125 4.4225 -6.0625 4.125 C-2.89335797 3.35785318 -2.89335797 3.35785318 -2 1 C-1.67 1.33 -1.34 1.66 -1 2 C-0.67 1.34 -0.34 0.68 0 0 Z " fill="#525F7C" transform="translate(459,324)"/>
<path d="M0 0 C1.98 0.99 1.98 0.99 4 2 C4 2.66 4 3.32 4 4 C4.61875 4.12375 5.2375 4.2475 5.875 4.375 C8 5 8 5 10 7 C3.55192878 6.39169139 3.55192878 6.39169139 1.0625 4.625 C0 3 0 3 0 0 Z " fill="#74859A" transform="translate(283,326)"/>
<path d="M0 0 C0.33 0.66 0.66 1.32 1 2 C-1.31 2.66 -3.62 3.32 -6 4 C-5.67 4.99 -5.34 5.98 -5 7 C-6.98 6.34 -8.96 5.68 -11 5 C-11 4.34 -11 3.68 -11 3 C-7.34920174 1.38935371 -3.9492568 0.55105909 0 0 Z " fill="#B8C0D1" transform="translate(148,311)"/>
<path d="M0 0 C2 2 2 2 2.125 4.625 C2.08375 5.40875 2.0425 6.1925 2 7 C1.01 7.495 1.01 7.495 0 8 C0 8.99 0 9.98 0 11 C-0.99 10.67 -1.98 10.34 -3 10 C-3.33 9.01 -3.66 8.02 -4 7 C-3.34 7 -2.68 7 -2 7 C-1.855625 6.21625 -1.71125 5.4325 -1.5625 4.625 C-1 2 -1 2 0 0 Z " fill="#DDE7F8" transform="translate(203,120)"/>
<path d="M0 0 C0.66 0.66 1.32 1.32 2 2 C1.625 4.625 1.625 4.625 1 7 C0.01 7 -0.98 7 -2 7 C-2.66 5.35 -3.32 3.7 -4 2 C-2.68 1.34 -1.36 0.68 0 0 Z " fill="#A6AABF" transform="translate(184,316)"/>
<path d="M0 0 C0.7425 0.495 0.7425 0.495 1.5 1 C5.09090894 2.43636358 8.14456127 2.12851462 12 2 C11.67 2.99 11.34 3.98 11 5 C9.54052295 4.93993922 8.08220728 4.8511311 6.625 4.75 C5.81289063 4.70359375 5.00078125 4.6571875 4.1640625 4.609375 C2 4 2 4 0.7109375 1.953125 C0.47632813 1.30859375 0.24171875 0.6640625 0 0 Z " fill="#DADAE7" transform="translate(445,123)"/>
<path d="M0 0 C2.0625 0.4375 2.0625 0.4375 4 1 C4.33 2.98 4.66 4.96 5 7 C3.35 6.67 1.7 6.34 0 6 C-0.38218767 4.34385343 -0.71395102 2.67542976 -1 1 C-0.67 0.67 -0.34 0.34 0 0 Z M-2 6 C-1.01 6.495 -1.01 6.495 0 7 C-0.99 7.495 -0.99 7.495 -2 8 C-2 7.34 -2 6.68 -2 6 Z " fill="#878EAD" transform="translate(508,187)"/>
<path d="M0 0 C1.32 0 2.64 0 4 0 C5.75 2 5.75 2 7 4 C6.01 4.33 5.02 4.66 4 5 C3.67 5.66 3.34 6.32 3 7 C2.67 6.01 2.34 5.02 2 4 C1.34 4 0.68 4 0 4 C-0.33 3.01 -0.66 2.02 -1 1 C-0.67 0.67 -0.34 0.34 0 0 Z " fill="#727979" transform="translate(367,324)"/>
<path d="M0 0 C2.625 0.375 2.625 0.375 5 1 C4.67 2.32 4.34 3.64 4 5 C1.13275314 4.42655063 0.1385485 4.1385485 -2 2 C-1.34 1.34 -0.68 0.68 0 0 Z " fill="#D1D8E4" transform="translate(353,89)"/>
<path d="M0 0 C1.32 0.33 2.64 0.66 4 1 C4 1.66 4 2.32 4 3 C4.66 3 5.32 3 6 3 C6 2.34 6 1.68 6 1 C6.99 0.67 7.98 0.34 9 0 C7.95125002 2.62187494 7.35068687 3.79371361 4.875 5.25 C4.25625 5.4975 3.6375 5.745 3 6 C2.67 5.01 2.34 4.02 2 3 C1.34 3 0.68 3 0 3 C0 2.01 0 1.02 0 0 Z " fill="#4549A5" transform="translate(446,329)"/>
<path d="M0 0 C2.475 0.495 2.475 0.495 5 1 C5 2.65 5 4.3 5 6 C3.68 6 2.36 6 1 6 C0.67 4.02 0.34 2.04 0 0 Z " fill="#78809C" transform="translate(346,322)"/>
<path d="M0 0 C1.9375 0.125 1.9375 0.125 4 1 C5.25 3.5625 5.25 3.5625 6 6 C3.03 5.505 3.03 5.505 0 5 C-0.5625 3.0625 -0.5625 3.0625 -1 1 C-0.67 0.67 -0.34 0.34 0 0 Z " fill="#636878" transform="translate(416,322)"/>
<path d="M0 0 C1.1171875 1.703125 1.1171875 1.703125 2 4 C1.3203125 6.359375 1.3203125 6.359375 0.125 8.75 C-0.26429688 9.54921875 -0.65359375 10.3484375 -1.0546875 11.171875 C-1.36664063 11.77515625 -1.67859375 12.3784375 -2 13 C-3.35439668 10.29120665 -3.06501451 7.99066732 -3 5 C-2.34 4.67 -1.68 4.34 -1 4 C-0.34786708 1.97536745 -0.34786708 1.97536745 0 0 Z " fill="#E4E9F2" transform="translate(196,141)"/>
<path d="M0 0 C1.98 0 3.96 0 6 0 C5.34 1.32 4.68 2.64 4 4 C3.01 4 2.02 4 1 4 C0.67 4.66 0.34 5.32 0 6 C0 4.02 0 2.04 0 0 Z " fill="#DDE7F5" transform="translate(212,105)"/>
<path d="M0 0 C1.98 0.66 3.96 1.32 6 2 C6 3.32 6 4.64 6 6 C4.02 5.34 2.04 4.68 0 4 C0 2.68 0 1.36 0 0 Z " fill="#535661" transform="translate(423,327)"/>
<path d="M0 0 C0.33 0.66 0.66 1.32 1 2 C1.66 2 2.32 2 3 2 C3.33 2.99 3.66 3.98 4 5 C2.02 5.33 0.04 5.66 -2 6 C-1.125 1.125 -1.125 1.125 0 0 Z " fill="#5293A2" transform="translate(409,325)"/>
<path d="M0 0 C0.33 1.32 0.66 2.64 1 4 C-1.31 4.66 -3.62 5.32 -6 6 C-6 4.68 -6 3.36 -6 2 C-4.02 2 -2.04 2 0 2 C0 1.34 0 0.68 0 0 Z " fill="#767E94" transform="translate(362,321)"/>
<path d="M0 0 C2.64 0 5.28 0 8 0 C8.33 0.99 8.66 1.98 9 3 C6.03 3 3.06 3 0 3 C0 2.01 0 1.02 0 0 Z " fill="#E7EDF3" transform="translate(167,166)"/>
<path d="M0 0 C0 0.66 0 1.32 0 2 C1.65 2.33 3.3 2.66 5 3 C4.34 3.66 3.68 4.32 3 5 C-0.3 4.01 -3.6 3.02 -7 2 C-7 1.67 -7 1.34 -7 1 C-2.25 0 -2.25 0 0 0 Z " fill="#7E8BA6" transform="translate(266,323)"/>
<path d="M0 0 C0.66 0.66 1.32 1.32 2 2 C1.01 2.495 1.01 2.495 0 3 C0 2.01 0 1.02 0 0 Z M-4 1 C-2.02 1.99 -2.02 1.99 0 3 C-0.33 4.65 -0.66 6.3 -1 8 C-1.99 7.67 -2.98 7.34 -4 7 C-4 5.02 -4 3.04 -4 1 Z " fill="#E8ECF5" transform="translate(117,199)"/>
<path d="M0 0 C3.04386724 -0.08226668 5.07175348 0.02391783 8 1 C7.34 2.32 6.68 3.64 6 5 C4.68 4.67 3.36 4.34 2 4 C2 3.01 2 2.02 2 1 C1.34 0.67 0.68 0.34 0 0 Z " fill="#F0F9FA" transform="translate(130,184)"/>
<path d="M0 0 C0.99 0.33 1.98 0.66 3 1 C2.67 2.32 2.34 3.64 2 5 C0.68 5.33 -0.64 5.66 -2 6 C-2 4.35 -2 2.7 -2 1 C-1.34 0.67 -0.68 0.34 0 0 Z " fill="#EAEDF9" transform="translate(423,119)"/>
<path d="M0 0 C0.33 0.66 0.66 1.32 1 2 C3.64 1.34 6.28 0.68 9 0 C9 0.99 9 1.98 9 3 C2.25 4.125 2.25 4.125 0 3 C0 2.01 0 1.02 0 0 Z " fill="#D2E3EF" transform="translate(388,115)"/>
<path d="M0 0 C2.0625 0.4375 2.0625 0.4375 4 1 C3.67 1.66 3.34 2.32 3 3 C2.01 3.33 1.02 3.66 0 4 C-0.33 4.66 -0.66 5.32 -1 6 C-1.66 5.67 -2.32 5.34 -3 5 C-1.125 1.125 -1.125 1.125 0 0 Z " fill="#D4DEE3" transform="translate(311,90)"/>
<path d="M0 0 C0.66 0 1.32 0 2 0 C2 0.66 2 1.32 2 2 C3.65 2.33 5.3 2.66 7 3 C5.1875 4.5625 5.1875 4.5625 3 6 C2.01 5.67 1.02 5.34 0 5 C0 3.35 0 1.7 0 0 Z " fill="#696F8E" transform="translate(394,326)"/>
<path d="M0 0 C0.556875 0.309375 1.11375 0.61875 1.6875 0.9375 C4.12540433 2.05761821 6.36224186 2.56037364 9 3 C9 3.33 9 3.66 9 4 C6.03 4 3.06 4 0 4 C0 2.68 0 1.36 0 0 Z " fill="#576477" transform="translate(474,315)"/>
<path d="M0 0 C3.41158256 1.13719419 4.11854601 2.04342944 6 5 C6 5.66 6 6.32 6 7 C4.125 6.6875 4.125 6.6875 2 6 C0 3 0 3 0 0 Z " fill="#4A819F" transform="translate(543,247)"/>
<path d="M0 0 C0.66 0 1.32 0 2 0 C1.34 2.31 0.68 4.62 0 7 C-1.32 7.33 -2.64 7.66 -4 8 C-2.87548273 5.0280615 -1.77706209 2.66559313 0 0 Z " fill="#D9DCF7" transform="translate(140,178)"/>
<path d="M0 0 C4.875 4.625 4.875 4.625 6 8 C4.68 7.67 3.36 7.34 2 7 C1.34 4.69 0.68 2.38 0 0 Z " fill="#D5D4DF" transform="translate(480,146)"/>
<path d="M0 0 C2.64 0.33 5.28 0.66 8 1 C8 2.32 8 3.64 8 5 C7.01 5 6.02 5 5 5 C5 4.34 5 3.68 5 3 C4.34 3 3.68 3 3 3 C3 2.34 3 1.68 3 1 C2.01 0.67 1.02 0.34 0 0 Z " fill="#C7C8DB" transform="translate(267,90)"/>
<path d="M0 0 C-2.55991624 2.01136276 -5.04590299 3.62845496 -8 5 C-8.33 4.01 -8.66 3.02 -9 2 C-5.86501708 0.14223235 -3.62528568 -0.20140476 0 0 Z " fill="#DBD1CF" transform="translate(337,80)"/>
<path d="M0 0 C-0.33 0.99 -0.66 1.98 -1 3 C-3.31 3 -5.62 3 -8 3 C-8 2.34 -8 1.68 -8 1 C-5.07175348 0.02391783 -3.04386724 -0.08226668 0 0 Z " fill="#7888AB" transform="translate(237,326)"/>
<path d="M0 0 C2.3431213 0.25561323 4.67843403 0.59270772 7 1 C7.33 1.66 7.66 2.32 8 3 C4.94736336 3.98120464 3.05263664 3.98120464 0 3 C0 2.01 0 1.02 0 0 Z " fill="#7C8A9D" transform="translate(220,325)"/>
<path d="M0 0 C0.99 0.33 1.98 0.66 3 1 C1.35 2.65 -0.3 4.3 -2 6 C-2.66 5.67 -3.32 5.34 -4 5 C-4 4.34 -4 3.68 -4 3 C-2.1875 1.3125 -2.1875 1.3125 0 0 Z " fill="#494D7B" transform="translate(545,315)"/>
<path d="M0 0 C0.99 0 1.98 0 3 0 C3.625 2.375 3.625 2.375 4 5 C3.34 5.66 2.68 6.32 2 7 C0 4 0 4 0 0 Z " fill="#4F5580" transform="translate(547,254)"/>
<path d="M0 0 C0.66 0 1.32 0 2 0 C2.66 0.66 3.32 1.32 4 2 C4.66 2 5.32 2 6 2 C6 2.99 6 3.98 6 5 C3.03 4.505 3.03 4.505 0 4 C0 2.68 0 1.36 0 0 Z " fill="#98A8B7" transform="translate(195,325)"/>
<path d="M0 0 C0.66 0.33 1.32 0.66 2 1 C1.67 1.66 1.34 2.32 1 3 C1.66 3.66 2.32 4.32 3 5 C-0.75 6.125 -0.75 6.125 -3 5 C-3 4.01 -3 3.02 -3 2 C-2.01 2 -1.02 2 0 2 C0 1.34 0 0.68 0 0 Z " fill="#E6E8F3" transform="translate(126,310)"/>
<path d="M0 0 C0.33 0 0.66 0 1 0 C1.66 3.3 2.32 6.6 3 10 C2.34 10 1.68 10 1 10 C-1.56687367 6.1496895 -0.83288724 4.41430237 0 0 Z " fill="#456182" transform="translate(541,241)"/>
<path d="M0 0 C0.66 0.33 1.32 0.66 2 1 C1.67 1.33 1.34 1.66 1 2 C1.99 2.99 2.98 3.98 4 5 C1 6 1 6 -2 5 C-1.34 3.35 -0.68 1.7 0 0 Z " fill="#D1D8E7" transform="translate(433,117)"/>
<path d="" fill="#000000" transform="translate(0,0)"/>
</svg>
